# xmcd
#
# Track frame offsets:
#	150
#	22151
#	42165
#	57680
#	82242
#	99296
#	112363
#	138466
#	172125
#	196155
#	221404
#	240932
#	266141
#	284943
#
# Disc length: 3995 seconds
#
# Revision: 0
# Processed by: cddbd v1.5.2PL0 Copyright (c) Steve Scherf et al.
# Submitted via: audiograbber 1.83.01
#
DISCID=e10f990e
DTITLE=Bluesböcke - Blue Moon Over Winterhude
DYEAR=1989
DGENRE=Blues
TTITLE0=All Your Love (From Sam Maghett)
TTITLE1=Dust My Broom
TTITLE2=My Baby
TTITLE3=Little Red Rooster
TTITLE4=Messin' With The Kid
TTITLE5=Just Your Fool
TTITLE6=Break It Up
TTITLE7=All Your Love (From Otis Rush)
TTITLE8=Caldonia
TTITLE9=Tired Of Trying
TTITLE10=The Boogie
TTITLE11=Talk To Me Baby (Bonus Track)
TTITLE12=Where Were You Tomorrow (Bonus Track)
TTITLE13=Let's Get Drunk Again (Bonus Track)
EXTD=
EXTT0=
EXTT1=
EXTT2=
EXTT3=
EXTT4=
EXTT5=
EXTT6=
EXTT7=
EXTT8=
EXTT9=
EXTT10=
EXTT11=
EXTT12=
EXTT13=
PLAYORDER=
